HIERARCHY
ROOT root
{
	OFFSET 0.000000 0.000000 0.000000
	CHANNELS 6 Xposition Yposition Zposition Zrotation Yrotation Xrotation
	JOINT lhip
	{
		OFFSET 0.058581 -0.082280 -0.017664
		CHANNELS 3 Zrotation Yrotation Xrotation
		JOINT lknee
		{
			OFFSET 0.043451 -0.386469 0.008037
			CHANNELS 3 Zrotation Yrotation Xrotation
			JOINT lankle
			{
				OFFSET -0.014790 -0.426874 -0.037428
				CHANNELS 3 Zrotation Yrotation Xrotation
				JOINT ltoe
				{
					OFFSET 0.041054 -0.060286 0.122042
					CHANNELS 3 Zrotation Yrotation Xrotation
					End Site
					{
						OFFSET 0.000000 0.000000 0.000000
					}
				}
			}
		}
	}
	JOINT rhip
	{
		OFFSET -0.060310 -0.090513 -0.013543
		CHANNELS 3 Zrotation Yrotation Xrotation
		JOINT rknee
		{
			OFFSET -0.043257 -0.383688 -0.004843
			CHANNELS 3 Zrotation Yrotation Xrotation
			JOINT rankle
			{
				OFFSET 0.019056 -0.420046 -0.034562
				CHANNELS 3 Zrotation Yrotation Xrotation
				JOINT rtoe
				{
					OFFSET -0.034840 -0.062106 0.130323
					CHANNELS 3 Zrotation Yrotation Xrotation
					End Site
					{
						OFFSET 0.000000 0.000000 0.000000
					}
				}
			}
		}
	}
	JOINT lowerback
	{
		OFFSET 0.004439 0.124404 -0.038385
		CHANNELS 3 Zrotation Yrotation Xrotation
		JOINT upperback
		{
			OFFSET 0.004488 0.137956 0.026820
			CHANNELS 3 Zrotation Yrotation Xrotation
			JOINT chest
			{
				OFFSET -0.002265 0.056032 0.002855
				CHANNELS 3 Zrotation Yrotation Xrotation
				JOINT lowerneck
				{
					OFFSET -0.013390 0.211636 -0.033468
					CHANNELS 3 Zrotation Yrotation Xrotation
					JOINT upperneck
					{
						OFFSET 0.010113 0.088937 0.050410
						CHANNELS 3 Zrotation Yrotation Xrotation
						End Site
						{
							OFFSET 0.000000 0.000000 0.000000
						}
					}
				}
				JOINT lclavicle
				{
					OFFSET 0.071702 0.114000 -0.018898
					CHANNELS 3 Zrotation Yrotation Xrotation
					JOINT lshoulder
					{
						OFFSET 0.122921 0.045205 -0.019046
						CHANNELS 3 Zrotation Yrotation Xrotation
						JOINT lelbow
						{
							OFFSET 0.255332 -0.015649 -0.022946
							CHANNELS 3 Zrotation Yrotation Xrotation
							JOINT lwrist
							{
								OFFSET 0.265709 0.012698 -0.007375
								CHANNELS 3 Zrotation Yrotation Xrotation
								End Site
								{
									OFFSET 0.000000 0.000000 0.000000
								}
							}
						}
					}
				}
				JOINT rclavicle
				{
					OFFSET -0.082954 0.112472 -0.023707
					CHANNELS 3 Zrotation Yrotation Xrotation
					JOINT rshoulder
					{
						OFFSET -0.113228 0.046853 -0.008472
						CHANNELS 3 Zrotation Yrotation Xrotation
						JOINT relbow
						{
							OFFSET -0.260127 -0.014369 -0.031269
							CHANNELS 3 Zrotation Yrotation Xrotation
							JOINT rwrist
							{
								OFFSET -0.269108 0.006794 -0.006027
								CHANNELS 3 Zrotation Yrotation Xrotation
								End Site
								{
									OFFSET 0.000000 0.000000 0.000000
								}
							}
						}
					}
				}
			}
		}
	}
}
MOTION
Frames: 11
Frame Time: 0.033333
2.341149 0.671936 0.989894 -78.925443 -0.320178 81.131198 -3.420216 -1.408967 7.973415 0.417335 -14.317829 -0.562668 1.893326 8.777016 -10.108123 0.000000 -0.000000 0.000000 -1.854171 -4.148933 7.981324 -4.145118 -0.650924 3.006061 3.323338 -9.553633 -11.500380 0.000000 -0.000000 0.000000 3.230052 4.813591 9.217265 -3.906971 0.403904 0.555248 -1.566495 3.035859 -3.609953 -1.756353 27.184407 -8.442774 1.447205 30.600754 0.780292 -27.181835 -6.715232 -0.163436 -51.976484 -4.176180 13.509632 0.091321 -23.463449 15.134768 -7.783072 -4.143583 2.345227 21.340484 8.555957 5.912336 59.389723 7.226648 19.357427 0.044449 23.765459 13.791290 9.356668 2.378984 3.489628 
2.341439 0.672798 0.989753 -79.033168 -0.263860 81.397321 -3.303514 -1.570579 7.492381 0.334475 -14.034872 -0.228757 1.985649 8.924611 -10.136784 0.000000 -0.000000 0.000000 -1.758237 -4.009920 7.452123 -4.000969 -0.645992 3.357753 3.391304 -9.525383 -11.551303 0.000000 -0.000000 0.000000 3.270448 5.114962 9.302479 -3.979854 0.427398 -0.056303 -1.536690 3.005852 -3.287976 -1.822371 27.190677 -8.217409 1.195984 30.454777 0.169306 -26.840397 -6.544051 -0.297961 -52.408154 -3.961990 13.679371 0.312753 -23.891331 14.936930 -7.790760 -3.682257 2.137088 21.307885 8.664142 6.029984 59.387547 7.258630 19.419015 -0.085827 23.860698 13.829427 9.291289 2.308661 3.422336 
2.340697 0.673378 0.989621 -78.766199 -0.231404 81.577145 -3.231877 -1.697736 7.254247 0.343843 -14.201280 -0.158010 1.594633 8.639596 -10.024678 0.000000 -0.000000 0.000000 -1.691498 -4.118787 7.399945 -4.010361 -0.933054 3.247216 3.403636 -9.472978 -11.508549 0.000000 -0.000000 0.000000 3.098257 5.201671 8.788012 -3.939222 0.329418 0.480585 -1.610617 3.072957 -3.410489 -1.963486 27.757881 -7.373501 1.133126 30.102171 -1.674130 -26.482784 -6.562402 -0.531340 -52.841616 -3.862494 13.730076 0.625972 -23.833436 14.660939 -8.033862 -3.929706 2.731591 21.368215 8.881707 5.888609 59.472198 7.005362 19.226046 -0.275614 23.897644 13.555613 9.359238 2.549606 3.735155 
2.340602 0.673801 0.989817 -78.759719 -0.226691 81.605824 -3.208212 -1.763637 7.128797 0.332616 -14.188547 -0.006039 1.804429 8.656058 -10.122893 0.000000 -0.000000 0.000000 -1.662091 -4.146191 7.329551 -3.948598 -0.856498 3.282303 3.407608 -9.506675 -11.573119 0.000000 -0.000000 0.000000 3.134775 5.319759 8.916006 -3.958062 0.410814 0.289239 -1.565201 2.969467 -3.268831 -2.072729 27.301489 -7.880589 0.920725 29.949929 -0.750881 -26.452365 -6.468842 -0.566406 -52.785436 -3.975517 13.607110 0.471376 -23.890089 14.615520 -8.453321 -3.805727 2.328433 21.177277 8.834658 5.861457 59.581410 7.294368 19.320436 -0.327741 23.968768 13.941911 9.929576 2.511388 4.054039 
2.340428 0.674167 0.989709 -78.751002 -0.199204 81.543536 -3.116729 -1.759092 7.189682 0.279508 -14.206147 0.016885 1.805748 8.617633 -10.131748 0.000000 -0.000000 0.000000 -1.616979 -4.213391 7.388320 -3.948319 -0.901682 3.315209 3.342320 -9.395108 -11.643005 0.000000 -0.000000 0.000000 3.229350 5.344994 8.948948 -3.997161 0.389185 0.568266 -1.617330 2.972404 -3.421958 -2.142336 27.208534 -7.781491 0.747470 29.830460 -0.753131 -26.450176 -6.507652 -0.446606 -52.795910 -4.004071 13.581729 0.761515 -24.040880 14.698638 -7.823872 -4.107040 2.667903 21.260684 8.994654 5.983499 59.561598 7.490130 19.205186 -0.421135 23.894633 13.870780 9.422367 2.767489 4.211402 
2.339648 0.674286 0.989811 -78.550260 -0.258590 81.604327 -3.188985 -1.808088 7.103255 0.295715 -14.211495 0.155305 2.022324 8.717044 -10.319875 0.000000 -0.000000 0.000000 -1.704557 -4.396392 7.414956 -3.974413 -0.991111 3.313257 3.387566 -9.392338 -11.595377 0.000000 -0.000000 0.000000 3.141165 5.317078 8.722073 -4.027265 0.302672 0.822227 -1.676056 3.041275 -3.549215 -2.043941 27.309586 -7.708769 0.888368 29.783582 -0.404443 -26.372883 -6.544112 -0.415042 -52.721430 -3.952731 13.632382 0.872776 -24.242696 14.676829 -6.785490 -4.293992 2.805600 21.388490 9.006564 6.153111 59.539035 7.551994 19.232331 -0.261257 23.871941 13.981630 8.941140 2.758408 4.315324 
2.339727 0.674098 0.989742 -78.728214 -0.360681 81.646266 -3.311331 -1.850866 7.058332 0.328164 -14.114886 0.118384 2.003666 8.822878 -10.141094 0.000000 -0.000000 0.000000 -1.816246 -4.146340 7.245154 -3.914656 -1.115137 3.467731 3.437036 -9.389388 -11.554549 0.000000 -0.000000 0.000000 3.114388 5.375035 8.897980 -4.101195 0.424059 0.550088 -1.664689 3.056360 -3.437060 -2.208738 27.412943 -7.726886 0.965791 29.620977 -0.379436 -26.095382 -6.644582 -0.286585 -52.913516 -4.016686 13.619286 1.079476 -24.266037 14.631427 -7.115916 -4.701207 2.555443 21.356299 9.176041 6.227121 59.573120 7.627727 19.228275 -0.356280 23.888317 13.909967 8.854558 2.913951 3.940876 
2.338210 0.673920 0.989766 -78.390664 -0.380655 81.673757 -3.361843 -1.966357 7.227305 0.401273 -14.246690 -0.117411 1.750017 8.615042 -10.020763 0.000000 -0.000000 0.000000 -1.851442 -4.271673 7.618910 -3.927202 -1.240813 3.009094 3.469524 -9.469116 -11.556757 0.000000 -0.000000 0.000000 3.043469 5.294576 8.434896 -4.057074 0.279359 1.020287 -1.657641 3.021704 -3.499865 -2.105521 27.485390 -7.580453 1.014665 29.482296 0.047926 -26.098821 -6.495123 -0.283946 -52.936977 -4.117844 13.475241 1.174405 -24.124550 14.670858 -7.410888 -4.986484 2.833943 21.471467 9.103402 6.257595 59.590813 7.594496 19.290135 -0.349498 24.054991 14.085964 8.923473 3.086452 4.320362 
2.338915 0.673992 0.989696 -78.748741 -0.442427 81.639031 -3.515806 -1.928956 7.309557 0.574534 -14.145721 -0.275701 1.731299 8.760887 -9.898578 0.000000 -0.000000 0.000000 -1.896823 -4.011114 7.374791 -3.868878 -1.144399 3.340333 3.356777 -9.336116 -11.591091 0.000000 -0.000000 0.000000 3.109261 5.370611 8.825057 -4.079042 0.429894 0.973965 -1.632011 3.032866 -3.531014 -2.342851 27.500954 -7.955423 1.002746 29.558190 0.286152 -26.204439 -6.743448 -0.281279 -52.942976 -4.158072 13.507811 1.448069 -23.975796 14.346320 -7.378151 -4.878513 2.995090 21.640005 9.241792 6.228633 59.307253 7.741061 19.242051 -0.442956 24.213487 13.926838 9.045935 3.169119 4.646536 
2.337171 0.673520 0.990015 -78.416796 -0.392803 81.734527 -3.391310 -1.943882 7.206455 0.432697 -14.261603 -0.057198 1.826449 8.648647 -10.228838 0.000000 -0.000000 0.000000 -1.846422 -4.360909 7.582976 -3.897150 -1.104847 3.031973 3.457009 -9.384543 -11.696385 0.000000 -0.000000 0.000000 2.971863 5.279247 8.291980 -3.934965 0.152319 1.366155 -1.561357 2.996211 -3.473014 -2.262499 27.685584 -7.742167 0.722960 29.559913 -0.147018 -25.967313 -6.656557 -0.427403 -52.885833 -4.038259 13.470495 0.985281 -24.025824 14.549007 -7.325307 -4.521013 3.127053 21.749308 9.210473 6.183682 59.338411 7.692813 19.271042 -0.291525 24.277384 14.184421 9.120882 2.816046 5.260103 
2.336357 0.673233 0.990075 -78.429882 -0.372884 81.720833 -3.355627 -1.856711 7.409233 0.505662 -14.390669 -0.313446 1.741863 8.515955 -10.064963 0.000000 -0.000000 0.000000 -1.834228 -4.485814 7.704158 -3.901075 -1.032889 2.926644 3.480513 -9.271247 -11.767900 0.000000 -0.000000 0.000000 3.035664 5.139664 8.362335 -3.924360 0.146371 1.164913 -1.543329 3.021327 -3.295006 -2.269280 27.680616 -7.857781 0.623857 29.633689 -0.256629 -25.844436 -6.442508 -0.571853 -52.968075 -4.006508 13.413894 0.810491 -24.050287 14.949645 -7.335688 -4.477673 3.068757 21.569144 9.004180 6.093745 59.557268 7.834218 19.327815 -0.036308 24.179249 14.582136 9.211533 2.692989 5.457813 
